<?xml version="1.0" encoding="UTF-8"?>
<svg id="Layer_2" xmlns="http://www.w3.org/2000/svg" version="1.1" viewBox="0 0 220.15 195.42">
  <!-- Generator: Adobe Illustrator 30.7.0, SVG Export Plug-In . SVG Version: 2.1.4 Build 114)  -->
  <defs>
    <style>
      .st0 {
        fill: #eaf3fb;
        stroke: #19134a;
        stroke-miterlimit: 10;
        stroke-width: .16px;
      }
    </style>
  </defs>
  <g id="Assets">
    <g>
      <path class="st0" d="M182.45,15.04c-19.44-.84-36.02,14.38-36.87,33.82v.34c-.19,5.77-3.31,11.04-8.26,14.01l-20.16,12.07c-7,4.19-15.74,4.39-22.83.32-4.02-2.3-8.43-4.02-13.13-5.04,1.86-4.29,6.02-7.17,10.73-7.39,4.14-.19,8.39-1.29,12.51-3.41,9.03-4.63,14.91-13.78,15.42-23.91,1.01-20.11-16.68-34.32-34.89-30.77-15.95,3.1-26.44,18.92-23.1,34.83,1.22,5.77,4.05,10.76,7.92,14.65,3.68,3.68,4.92,9.13,3.08,13.99l-.39,1.01c-8.72-.1-16.9,2.39-24.42,5.78-14.38,6.51-21.19,22.46-23.04,31.47-1.01,5.01-1.24,10.31-.51,15.81.64,4.95,2.39,9.9,4.95,14.54-1.8.19-3.49.24-4.87.1-1.19-.13-2.3-.43-3.29-1.04-1.99-1.2-2.1-3.34-1.16-5.4l-.74-2.65c-4.82,3.53-13.93,11.49-14.72,17.3-.22,1.62.56,3.1,2.01,3.84,2.51,1.29,6.35.98,9.22.5,4.63-.77,9.03-2.09,13.37-3.84,1.59-.64,3.15-1.3,4.69-1.98,6.88,8.84,16.63,15.7,26.73,17.85,17.56,3.76,34.12-2.51,44.79-14.28l8.1,5.49c0,5.12,2.73,8.51,6.59,11.12l37.11,25c5.22,3.52,12.16,1.24,15.42-3.15,3.41-4.58,3.34-12.35-2.1-16.05l-39.94-27.09c-2.84-1.93-6.91-.95-10.02-.42l-8.02-5.25c4.14-8.21,5.94-17.85,4.5-28.05v-.08c-.79-5.41,1.61-10.8,6.22-13.74l24.07-15.44c4.29-2.75,9.8-2.73,14.06.08,5.08,3.36,11.09,5.45,17.59,5.8,19.58,1.06,36.42-14.2,37.29-33.8.85-19.55-14.31-36.1-33.87-36.93l-.05-.02ZM69.08,38.17c-1.24-5.86.13-11.58,3.12-16.64,3-5.08,8.43-8.13,13.98-9.56,2.96-.74,5.86-.71,8.72.11,2.86.31,5.49,1.32,7.9,3,4.76,3.1,8.39,8.42,9.56,13.98,1.24,5.86-.13,11.58-3.12,16.64-3,5.08-8.43,8.13-13.98,9.56-2.96.74-5.86.71-8.72-.11-2.86-.31-5.49-1.32-7.9-3-4.76-3.1-8.39-8.42-9.56-13.98ZM110.77,107.64c.32,3.53.64,7.08.96,10.62-.03,5.48-1.38,10.52-4.08,15.15-1.82,4.85-4.74,9-8.76,12.43-3.76,3.71-8.15,6.27-13.14,7.66-4.84,2.28-9.99,3.2-15.45,2.76-7.17-.34-13.77-2.43-19.81-6.28-2.59-2.18-5.17-4.37-7.78-6.55-.72-.8-1.41-1.62-2.07-2.46l6.43-3.02,3.84-1.9c5.48-2.96,10.78-6.1,15.98-9.51l7.23-5.03c3.1-2.15,5.94-4.55,8.58-7.28l-8.1,5.3c-6.09,3.76-12.39,7.04-19.01,9.72l-6.09,2.46-6.73,2.41c-1.54.55-3.49,1.12-5.57,1.65-1.77-3.2-3.08-6.63-3.95-10.3-.32-3.53-.64-7.08-.96-10.62.03-5.48,1.38-10.52,4.08-15.15,1.82-4.85,4.74-9,8.76-12.43,3.76-3.71,8.15-6.27,13.14-7.66,4.84-2.28,9.99-3.2,15.45-2.76,7.17.34,13.77,2.43,19.81,6.28,2.59,2.18,5.19,4.37,7.78,6.55,4.71,5.17,7.86,11.15,9.46,17.96v-.02ZM148.54,72.97l-31.39,20.13c-2.14,1.37-4.98.72-6.3-1.45-.11-.18-.21-.35-.32-.51-1.46-2.31-.76-5.35,1.59-6.76l31.28-18.72c2.28-1.37,5.22-.55,6.51,1.77,0,.03.03.05.05.08,1.04,1.9.43,4.29-1.4,5.46h-.02Z"/>
      <path class="st0" d="M92.89,102.53c-.61-.61-1.61-.63-2.23-.02l-1.82,1.75-2.09-2.1-.71.67,2.09,2.1-1.08,1.04c-.63.61-.63,1.59-.02,2.2l2.68,2.7c.61.61,1.61.63,2.23.02l1.08-1.04,2.09,2.1.71-.67-2.09-2.1,1.82-1.75c.63-.61.63-1.59.02-2.2l-2.68-2.7h0Z"/>
    </g>
  </g>
</svg>